<svg id="bold" enable-background="new 0 0 32 32" height="512" viewBox="0 0 32 32" width="512" xmlns="http://www.w3.org/2000/svg"><path d="m26 32h-20c-3.314 0-6-2.686-6-6v-20c0-3.314 2.686-6 6-6h20c3.314 0 6 2.686 6 6v20c0 3.314-2.686 6-6 6z" fill="#ffe6e2"/><g fill="#fd907e"><path d="m18.166 18.333c-.115 0-.231-.039-.325-.12-.21-.18-.234-.495-.054-.705l.721-.841-.721-.841c-.18-.21-.156-.525.054-.705s.525-.155.705.054l1 1.167c.16.188.16.464 0 .651l-1 1.167c-.099.114-.239.173-.38.173z"/><path d="m13.834 18.333c-.141 0-.281-.059-.38-.174l-1-1.167c-.16-.188-.16-.464 0-.651l1-1.167c.18-.209.495-.235.705-.054.21.18.234.495.054.705l-.721.841.721.841c.18.21.156.525-.054.705-.095.082-.21.121-.325.121z"/><path d="m15.388 19.321c-.269-.062-.437-.331-.375-.6l1-4.333c.062-.269.33-.436.6-.375.269.062.437.331.375.6l-1 4.333c-.062.264-.324.436-.6.375z"/></g><path d="m22.833 11.333h-13.666c-.64 0-1.167.527-1.167 1.167v8.333c0 .64.527 1.167 1.167 1.167h5.5v1.333h-1.333c-.368 0-.667.299-.667.667s.299.667.667.667h5.333c.368 0 .667-.299.667-.667s-.298-.667-.667-.667h-1.333v-1.333h5.5c.639 0 1.166-.527 1.166-1.167v-8.333c0-.64-.527-1.167-1.167-1.167zm-.166 9.334h-13.334v-8h13.333v8z" fill="#fc573b"/></svg>