<svg enable-background="new 0 0 32 32" height="512" viewBox="0 0 32 32" width="512" xmlns="http://www.w3.org/2000/svg"><path d="m26 32h-20c-3.314 0-6-2.686-6-6v-20c0-3.314 2.686-6 6-6h20c3.314 0 6 2.686 6 6v20c0 3.314-2.686 6-6 6z" fill="#ffe6e2"/><path d="m22.833 8h-13.666c-.644 0-1.167.523-1.167 1.167v1.667c0 .643.523 1.166 1.167 1.166h13.667c.643 0 1.166-.523 1.166-1.167v-1.666c0-.644-.523-1.167-1.167-1.167z" fill="#fc573b"/><path d="m9.167 24h5c.643 0 1.167-.523 1.167-1.167v-8.333c0-.643-.523-1.167-1.167-1.167h-5c-.644 0-1.167.524-1.167 1.167v8.333c0 .644.523 1.167 1.167 1.167z" fill="#fc573b"/><g fill="#fd907e"><path d="m22.833 13.333h-5c-.643 0-1.167.523-1.167 1.167v2.333c0 .643.523 1.167 1.167 1.167h5c.644 0 1.167-.523 1.167-1.167v-2.333c0-.643-.523-1.167-1.167-1.167z"/><path d="m22.833 19.333h-5c-.643 0-1.167.523-1.167 1.167v2.333c0 .643.523 1.167 1.167 1.167h5c.644 0 1.167-.523 1.167-1.167v-2.333c0-.643-.523-1.167-1.167-1.167z"/></g></svg>