<svg id="bold" enable-background="new 0 0 32 32" height="512" viewBox="0 0 32 32" width="512" xmlns="http://www.w3.org/2000/svg"><path d="m26 32h-20c-3.314 0-6-2.686-6-6v-20c0-3.314 2.686-6 6-6h20c3.314 0 6 2.686 6 6v20c0 3.314-2.686 6-6 6z" fill="#fff9dd"/><path d="m10.667 12.5c0-1.746 1.421-3.167 3.167-3.167h6.089c-.22-.767-.92-1.333-1.756-1.333h-7.667c-1.011 0-1.833.822-1.833 1.833v10.333c0 1.012.822 1.834 1.833 1.834h.167z" fill="#ffe777"/><path d="m21.5 10.667h-7.667c-1.011 0-1.833.822-1.833 1.833v9.667c0 1.011.822 1.833 1.833 1.833h7.667c1.011 0 1.833-.822 1.833-1.833v-9.667c0-1.011-.822-1.833-1.833-1.833zm-1.333 11.333h-5c-.276 0-.5-.224-.5-.5s.224-.5.5-.5h5c.276 0 .5.224.5.5s-.224.5-.5.5zm0-2.667h-5c-.276 0-.5-.224-.5-.5s.224-.5.5-.5h5c.276 0 .5.224.5.5s-.224.5-.5.5zm0-2.333h-5c-.276 0-.5-.224-.5-.5s.224-.5.5-.5h5c.276 0 .5.224.5.5s-.224.5-.5.5zm0-2.667h-5c-.276 0-.5-.224-.5-.5s.224-.5.5-.5h5c.276 0 .5.224.5.5s-.224.5-.5.5z" fill="#ffd200"/></svg>