<svg id="bold" enable-background="new 0 0 32 32" height="512" viewBox="0 0 32 32" width="512" xmlns="http://www.w3.org/2000/svg"><path d="m26 32h-20c-3.314 0-6-2.686-6-6v-20c0-3.314 2.686-6 6-6h20c3.314 0 6 2.686 6 6v20c0 3.314-2.686 6-6 6z" fill="#ffe6e2"/><path d="m17.5 8h-7.667c-1.013 0-1.833.82-1.833 1.833v10.333c0 1.014.82 1.834 1.833 1.834h4.92l.147-.82c.067-.373.24-.707.507-.98l3.927-3.92v-6.447c-.001-1.013-.821-1.833-1.834-1.833zm-6.833 2.667h2.667c.367 0 .667.3.667.667s-.301.666-.668.666h-2.667c-.366 0-.666-.3-.666-.667s.3-.666.667-.666zm3.333 6.666h-3.333c-.367 0-.667-.3-.667-.667s.3-.666.667-.666h3.333c.367 0 .667.3.667.667s-.3.666-.667.666zm2.667-2.666h-6c-.367 0-.667-.3-.667-.667s.3-.667.667-.667h6c.367 0 .667.3.667.667-.001.367-.301.667-.667.667z" fill="#fc573b"/><path d="m16.352 24c-.132 0-.259-.052-.354-.146-.115-.115-.167-.28-.139-.44l.354-2.004c.018-.101.066-.194.139-.267l4.95-4.95c.608-.609 1.205-.445 1.532-.118l.825.825c.455.455.455 1.195 0 1.65l-4.95 4.95c-.072.073-.165.121-.267.139l-2.003.354c-.029.004-.058.007-.087.007zm2.003-.853h.007z" fill="#fd907e"/></svg>