<svg height="512pt" viewBox="0 0 512 512" width="512pt" xmlns="http://www.w3.org/2000/svg"><path d="m416 512h-320c-53.023438 0-96-42.976562-96-96v-320c0-53.023438 42.976562-96 96-96h320c53.023438 0 96 42.976562 96 96v320c0 53.023438-42.976562 96-96 96zm0 0" fill="#e3f8fa"/><g fill="#8ce1eb"><path d="m181.375 138.640625v42.671875h-21.328125v-42.671875c0-5.871094 4.6875-10.671875 10.671875-10.671875 5.855469 0 10.65625 4.800781 10.65625 10.671875zm0 0"/><path d="m181.375 234.640625v138.671875c0 5.871094-4.800781 10.671875-10.671875 10.671875-5.96875 0-10.671875-4.800781-10.671875-10.671875v-138.671875zm0 0"/><path d="m365.34375 181.328125h-13.328125v-42.671875c0-5.886719-4.785156-10.65625-10.671875-10.65625s-10.671875 4.785156-10.671875 10.671875v42.671875h-13.328125c-10.289062 0-18.671875 8.367188-18.671875 18.671875v16c0 10.289063 8.367187 18.671875 18.671875 18.671875h13.328125v138.671875c0 5.886719 4.769531 10.671875 10.671875 10.671875 5.886719 0 10.671875-4.785156 10.671875-10.671875v-138.671875h13.328125c10.289062 0 18.671875-8.367188 18.671875-18.671875v-16c0-10.320313-8.382813-18.6875-18.671875-18.6875zm0 0"/><path d="m280.015625 288h-13.328125v-149.34375c-.015625-5.886719-4.785156-10.65625-10.671875-10.65625s-10.671875 4.785156-10.671875 10.671875v149.328125h-13.328125c-10.289063 0-18.671875 8.367188-18.671875 18.671875v16c0 10.289063 8.367188 18.671875 18.671875 18.671875h13.328125v32c0 5.886719 4.769531 10.671875 10.671875 10.671875 5.886719 0 10.671875-4.785156 10.671875-10.671875v-32h13.328125c10.289063 0 18.671875-8.367188 18.671875-18.671875v-16c-.015625-10.304687-8.382812-18.671875-18.671875-18.671875zm0 0"/></g><path d="m213.375 199.96875v16c0 10.351562-8.429688 18.671875-18.671875 18.671875h-48c-10.351563 0-18.671875-8.320313-18.671875-18.671875v-16c0-10.242188 8.320312-18.671875 18.671875-18.671875h48c10.242187 0 18.671875 8.429687 18.671875 18.671875zm0 0" fill="#26c6da"/><path d="m298.671875 306.640625v16c0 10.351563-8.433594 18.671875-18.671875 18.671875h-48c-10.351562 0-18.671875-8.320312-18.671875-18.671875v-16c0-10.242187 8.320313-18.671875 18.671875-18.671875h48c10.257812 0 18.671875 8.429688 18.671875 18.671875zm0 0" fill="#26c6da"/><path d="m384.015625 199.96875v16c0 10.351562-8.429687 18.671875-18.671875 18.671875h-48c-10.351562 0-18.671875-8.320313-18.671875-18.671875v-16c0-10.242188 8.320313-18.671875 18.671875-18.671875h48c10.242188 0 18.671875 8.429687 18.671875 18.671875zm0 0" fill="#26c6da"/></svg>