<svg id="bold" enable-background="new 0 0 32 32" height="512" viewBox="0 0 32 32" width="512" xmlns="http://www.w3.org/2000/svg"><path d="m26 32h-20c-3.314 0-6-2.686-6-6v-20c0-3.314 2.686-6 6-6h20c3.314 0 6 2.686 6 6v20c0 3.314-2.686 6-6 6z" fill="#f5e6fe"/><path d="m20.833 8h-9.667c-1.011 0-1.833.822-1.833 1.833v12.333c0 1.011.822 1.833 1.833 1.833h9.667c1.011 0 1.833-.822 1.833-1.833v-12.333c.001-1.011-.822-1.833-1.833-1.833zm-6.833 13.5c0 .276-.224.5-.5.5h-1.667c-.276 0-.5-.224-.5-.5v-2.333c0-.276.224-.5.5-.5h1.667c.276 0 .5.224.5.5zm0-4c0 .276-.224.5-.5.5h-1.667c-.276 0-.5-.224-.5-.5v-2.333c0-.276.224-.5.5-.5h1.667c.276 0 .5.224.5.5zm3.333 4c0 .276-.224.5-.5.5h-1.667c-.276 0-.5-.224-.5-.5v-2.333c0-.276.224-.5.5-.5h1.667c.276 0 .5.224.5.5zm0-4c0 .276-.224.5-.5.5h-1.667c-.276 0-.5-.224-.5-.5v-2.333c0-.276.224-.5.5-.5h1.667c.276 0 .5.224.5.5zm3.334 4c0 .276-.224.5-.5.5h-1.667c-.276 0-.5-.224-.5-.5v-6.333c0-.276.224-.5.5-.5h1.667c.276 0 .5.224.5.5zm0-9.333c0 .643-.523 1.167-1.167 1.167h-7c-.643 0-1.167-.523-1.167-1.167v-1c0-.643.523-1.167 1.167-1.167h7c.643 0 1.167.523 1.167 1.167z" fill="#be63f9"/></svg>