<svg height="512pt" viewBox="0 0 512 512" width="512pt" xmlns="http://www.w3.org/2000/svg"><path d="m416 512h-320c-53.023438 0-96-42.976562-96-96v-320c0-53.023438 42.976562-96 96-96h320c53.023438 0 96 42.976562 96 96v320c0 53.023438-42.976562 96-96 96zm0 0" fill="#e3f8fa"/><path d="m348.671875 337.742188h-192c-5.886719 0-10.671875 4.785156-10.671875 10.671874 0 5.890626 4.785156 10.675782 10.671875 10.675782h192c5.886719 0 10.671875-4.785156 10.671875-10.675782 0-5.886718-4.785156-10.671874-10.671875-10.671874zm0 0" fill="#8ce1eb"/><g fill="#26c6da"><path d="m222.59375 327.054688c8.03125 0 16.0625-3.054688 22.175781-9.167969l80.511719-80.511719c4.160156-4.160156 4.160156-10.910156 0-15.085938l-87.839844-87.824218c-4.160156-4.160156-10.914062-4.160156-15.089844 0l-80.511718 80.511718c-12.222656 12.222657-12.222656 32.128907 0 44.351563l58.558594 58.558594c6.128906 6.113281 14.160156 9.167969 22.195312 9.167969zm7.308594-169.964844 72.738281 72.734375-1.234375 1.230469h-145.132812c.253906-.320313.367187-.71875.671874-1.007813zm0 0"/><path d="m306 299.503906c0 15.199219 11.96875 27.550782 26.671875 27.550782s26.671875-12.367188 26.671875-27.550782c0-12.238281-15.296875-36.398437-19.984375-43.503906-2.960937-4.496094-10.398437-4.496094-13.359375 0-4.703125 7.105469-20 31.265625-20 43.503906zm0 0"/></g></svg>