<svg height="512pt" viewBox="0 0 512 512" width="512pt" xmlns="http://www.w3.org/2000/svg"><path d="m416 512h-320c-53.023438 0-96-42.976562-96-96v-320c0-53.023438 42.976562-96 96-96h320c53.023438 0 96 42.976562 96 96v320c0 53.023438-42.976562 96-96 96zm0 0" fill="#f5e6fe"/><path d="m309.328125 256c0 29.453125-23.875 53.328125-53.328125 53.328125s-53.328125-23.875-53.328125-53.328125 23.875-53.328125 53.328125-53.328125 53.328125 23.875 53.328125 53.328125zm0 0" fill="#be63f9"/><path d="m256 362.671875c-58.816406 0-106.671875-47.855469-106.671875-106.671875s47.855469-106.65625 106.671875-106.65625 106.671875 47.855469 106.671875 106.671875-47.855469 106.65625-106.671875 106.65625zm0-192c-47.054688 0-85.328125 38.289063-85.328125 85.328125s38.289063 85.328125 85.328125 85.328125 85.328125-38.289063 85.328125-85.328125-38.273437-85.328125-85.328125-85.328125zm0 0" fill="#d9a4fc"/><g fill="#be63f9"><path d="m256 181.34375c-5.886719 0-10.671875-4.785156-10.671875-10.671875v-32c0-5.886719 4.785156-10.671875 10.671875-10.671875s10.671875 4.785156 10.671875 10.671875v32c0 5.886719-4.769531 10.671875-10.671875 10.671875zm0 0"/><path d="m256 384c-5.886719 0-10.671875-4.785156-10.671875-10.671875v-32c0-5.886719 4.769531-10.671875 10.671875-10.671875 5.886719 0 10.671875 4.785156 10.671875 10.671875v32c0 5.902344-4.769531 10.671875-10.671875 10.671875zm0 0"/><path d="m170.671875 266.671875h-32c-5.902344 0-10.671875-4.785156-10.671875-10.671875s4.769531-10.671875 10.671875-10.671875h32c5.886719 0 10.671875 4.785156 10.671875 10.671875s-4.785156 10.671875-10.671875 10.671875zm0 0"/><path d="m373.328125 266.671875h-32c-5.886719 0-10.671875-4.785156-10.671875-10.671875s4.769531-10.671875 10.671875-10.671875h32c5.902344.015625 10.671875 4.785156 10.671875 10.671875s-4.769531 10.671875-10.671875 10.671875zm0 0"/></g></svg>