<svg enable-background="new 0 0 32 32" height="512" viewBox="0 0 32 32" width="512" xmlns="http://www.w3.org/2000/svg"><path d="m26 32h-20c-3.314 0-6-2.686-6-6v-20c0-3.314 2.686-6 6-6h20c3.314 0 6 2.686 6 6v20c0 3.314-2.686 6-6 6z" fill="#fff9dd"/><path d="m15.38 8.015-3.886.016c-.504 0-.976.279-1.215.718l-2.031 3.671 6.741-.016z" fill="#ffe777"/><path d="m23.744 12.388-2.055-3.671c-.248-.439-.712-.718-1.223-.718l-3.886.016.408 4.389z" fill="#ffe777"/><path d="m23.992 13.577-7.396.024h-1.199l-7.397.016v9.046c0 .738.599 1.335 1.336 1.333l6.172-.013 7.155.013c.738.001 1.336-.597 1.336-1.334zm-1.992 7.922c0 .276-.224.5-.5.5h-4.333c-.276 0-.5-.224-.5-.5v-2.333c0-.276.224-.5.5-.5h4.333c.276 0 .5.224.5.5z" fill="#ffd200"/></svg>