<svg enable-background="new 0 0 32 32" height="512" viewBox="0 0 32 32" width="512" xmlns="http://www.w3.org/2000/svg"><path d="m26 32h-20c-3.314 0-6-2.686-6-6v-20c0-3.314 2.686-6 6-6h20c3.314 0 6 2.686 6 6v20c0 3.314-2.686 6-6 6z" fill="#f5e6fe"/><path d="m23.333 22.667h-14v-14c0-.369-.298-.667-.666-.667s-.667.298-.667.667v14c0 .735.598 1.333 1.333 1.333h14c.369 0 .667-.298.667-.667s-.298-.666-.667-.666z" fill="#be63f9"/><g fill="#d9a4fc"><path d="m11.833 20.667h1.667c.643 0 1.167-.523 1.167-1.167v-3.667c0-.643-.523-1.167-1.167-1.167h-1.667c-.643 0-1.167.523-1.167 1.167v3.667c.001.643.524 1.167 1.167 1.167z"/><path d="m16.5 20.667h1.667c.643 0 1.167-.523 1.167-1.167v-5.667c0-.643-.523-1.167-1.167-1.167h-1.667c-.643 0-1.167.523-1.167 1.167v5.667c0 .643.524 1.167 1.167 1.167z"/><path d="m22.833 10h-1.667c-.643 0-1.166.523-1.166 1.167v8.333c0 .643.523 1.167 1.167 1.167h1.667c.643 0 1.167-.523 1.167-1.167v-8.333c-.001-.644-.524-1.167-1.168-1.167z"/></g></svg>