<svg height="480pt" viewBox="0 0 480 480" width="480pt" xmlns="http://www.w3.org/2000/svg"><path d="m8 8h208v208h-208zm0 0" fill="#c0cef9"/><path d="m264 8h208v208h-208zm0 0" fill="#c0cef9"/><path d="m8 264h208v208h-208zm0 0" fill="#c0cef9"/><g fill="#3366ff "><path d="m216 224h-208c-4.417969 0-8-3.582031-8-8v-208c0-4.417969 3.582031-8 8-8h208c4.417969 0 8 3.582031 8 8v208c0 4.417969-3.582031 8-8 8zm-200-16h192v-192h-192zm0 0"/><path d="m472 224h-208c-4.417969 0-8-3.582031-8-8v-208c0-4.417969 3.582031-8 8-8h208c4.417969 0 8 3.582031 8 8v208c0 4.417969-3.582031 8-8 8zm-200-16h192v-192h-192zm0 0"/><path d="m216 480h-208c-4.417969 0-8-3.582031-8-8v-208c0-4.417969 3.582031-8 8-8h208c4.417969 0 8 3.582031 8 8v208c0 4.417969-3.582031 8-8 8zm-200-16h192v-192h-192zm0 0"/><path d="m472 352h-96v-88c0-4.417969-3.582031-8-8-8s-8 3.582031-8 8v88h-96c-4.417969 0-8 3.582031-8 8s3.582031 8 8 8h96v104c0 4.417969 3.582031 8 8 8s8-3.582031 8-8v-104h96c4.417969 0 8-3.582031 8-8s-3.582031-8-8-8zm0 0"/></g></svg>