<svg height="480pt" viewBox="-40 0 480 480" width="480pt" xmlns="http://www.w3.org/2000/svg"><path d="m304 8h-208c-17.671875 0-32 14.328125-32 32v16h272v-24c0-9.671875-14.328125-24-32-24zm-112 24" fill="#c0cef9"/><path d="m392 168h-384v192h384zm-248 129.945312-33.945312-33.945312 33.945312-33.945312-33.945312 33.945312zm36 .695313 40-69.28125zm76-.695313 33.945312-33.945312-33.945312-33.945312 33.945312 33.945312zm0 0" fill="#c0cef9"/><path d="m64 424v16c0 17.671875 14.328125 32 32 32h208c17.671875 0 32-14.328125 32-24v-24zm0 0" fill="#c0cef9"/><path d="m392 120h-384v48h384zm-296 24" fill="#c0cef9"/><g fill="#3a7afe "><path d="m72 64h256v40h16v-72c0-14.398438-18.457031-32-40-32h-208c-22.082031.0273438-39.972656 17.917969-40 40v64h16zm24-48h208c13.863281 0 24 11.199219 24 16v16h-256v-8c0-13.253906 10.746094-24 24-24zm0 0"/><path d="m328 416h-104v16h104v8c0 13.253906-10.746094 24-24 24h-208c-13.253906 0-24-10.746094-24-24v-8h104v-16h-104v-40h-16v64c.027344 22.082031 17.917969 39.972656 40 40h208c22.082031-.027344 39.972656-17.917969 40-40v-64h-16zm0 0"/><path d="m192 416h16v16h-16zm0 0"/><path d="m192 24h16v16h-16zm0 0"/><path d="m0 112v256h400v-256zm384 16v32h-368v-32zm-368 224v-176h368v176zm0 0"/><path d="m32 136h16v16h-16zm0 0"/><path d="m64 136h16v16h-16zm0 0"/><path d="m96 136h16v16h-16zm0 0"/><path d="m261.65625 224.398438c-2.007812-2.078126-4.984375-2.914063-7.78125-2.179688-2.796875.730469-4.980469 2.917969-5.710938 5.714844-.734374 2.796875.101563 5.769531 2.179688 7.777344l28.289062 28.289062-28.289062 28.289062c-2.078125 2.007813-2.914062 4.980469-2.179688 7.777344.730469 2.796875 2.914063 4.984375 5.710938 5.714844 2.796875.734375 5.773438-.101562 7.78125-2.179688l33.945312-33.945312c3.121094-3.125 3.121094-8.1875 0-11.3125zm0 0"/><path d="m149.65625 224.398438c-3.125-3.121094-8.1875-3.121094-11.3125 0l-33.945312 33.945312c-3.121094 3.125-3.121094 8.1875 0 11.3125l33.945312 33.945312c3.140625 3.03125 8.128906 2.988282 11.214844-.097656 3.085937-3.085937 3.128906-8.078125.097656-11.214844l-28.289062-28.289062 28.289062-28.289062c3.121094-3.121094 3.121094-8.1875 0-11.3125zm0 0"/><path d="m224 222.398438c-3.828125-2.207032-8.71875-.898438-10.929688 2.929687l-40 69.28125c-1.449218 2.476563-1.464843 5.539063-.035156 8.027344 1.429688 2.492187 4.085938 4.023437 6.957032 4.015625 2.871093-.003906 5.515624-1.546875 6.9375-4.042969l40-69.28125c2.207031-3.828125.894531-8.71875-2.929688-10.929687zm0 0"/></g></svg>