<svg height="480pt" viewBox="-40 0 480 480" width="480pt" xmlns="http://www.w3.org/2000/svg"><path d="m272 208-192-64-72 24 192 64zm0 0" fill="#c0cef9"/><path d="m392 168-72 24v66.640625l-48 16v-66.640625l-72 24v240l192-64zm0 0" fill="#c0cef9"/><path d="m392 168-192-64-72 24 192 64zm0 0" fill="#c0cef9"/><path d="m8 168v240l192 64v-240zm0 0" fill="#c0cef9"/><g fill="#3366ff "><path d="m400 408v-240c-.011719-.757812-.128906-1.507812-.351562-2.230469-.0625-.226562-.160157-.425781-.242188-.640625-.1875-.503906-.433594-.984375-.726562-1.433594-.121094-.191406-.238282-.382812-.375-.566406-.394532-.507812-.847657-.96875-1.351563-1.367187-.089844-.066407-.144531-.152344-.234375-.210938h-.039062c-.039063 0-.09375 0-.144532-.054687-.617187-.441406-1.292968-.796875-2.007812-1.046875l-192-64c-1.640625-.546875-3.414063-.546875-5.054688 0l-192 64c-.714844.253906-1.390625.605469-2.007812 1.046875 0 0-.105469 0-.144532.054687-.078124.066407-.152343.136719-.222656.210938-.507812.398437-.964844.855469-1.363281 1.367187-.132813.183594-.253906.375-.375.566406-.292969.449219-.535156.929688-.726563 1.433594-.082031.214844-.175781.414063-.242187.632813-.234375.722656-.3671875 1.476562-.390625 2.238281v240c0 3.445312 2.203125 6.503906 5.472656 7.59375l145.222656 48.40625h-142.695312c-4.417969 0-8 3.582031-8 8s3.582031 8 8 8h384c4.417969 0 8-3.582031 8-8s-3.582031-8-8-8h-142.695312l145.222656-48.40625c3.269531-1.089844 5.472656-4.148438 5.472656-7.59375zm-320-255.566406 166.695312 55.566406-46.695312 15.566406-166.703125-55.566406zm199.9375 55.253906c-.042969-.441406-.121094-.878906-.242188-1.304688-.015624-.304687-.054687-.609374-.109374-.910156 0-.105468-.113282-.167968-.144532-.265625-.035156-.09375-.136718-.367187-.226562-.550781-.203125-.375-.4375-.734375-.703125-1.070312-.210938-.363282-.449219-.707032-.710938-1.035157-.113281-.121093-.234375-.238281-.359375-.351562-.304687-.25-.625-.472657-.960937-.671875-.363281-.285156-.753907-.539063-1.160157-.757813-.167968-.082031-.34375-.136719-.519531-.203125-.175781-.0625-.167969-.117187-.273437-.160156l-169.230469-56.40625 22.703125-7.566406 184 61.335937v55.101563l-32 10.671875v-55.542969c0-.113281-.054688-.199219-.0625-.3125zm-79.9375-95.253906 166.703125 55.566406-46.703125 15.566406-166.695312-55.566406zm-184 66.671875 176 58.664062v223.132813l-176-58.671875zm192 281.796875v-223.132813l56-18.664062v55.535156c.046875.4375.136719.871094.265625 1.296875.011719.414062.0625.824219.148437 1.230469 0 .113281.113282.199219.152344.304687.136719.300782.292969.59375.464844.878906.28125.574219.632812 1.113282 1.046875 1.601563.222656.238281.460937.46875.707031.6875.488282.421875 1.023438.78125 1.597656 1.070313.273438.136718.519532.289062.800782.402343.898437.363281 1.855468.558594 2.824218.574219.859376 0 1.714844-.140625 2.527344-.414062l48-16c.105469 0 .175782-.121094.273438-.160157.527344-.226562 1.027344-.511719 1.488281-.855469.40625-.230468.792969-.5 1.152344-.800781.644531-.777343 1.238281-1.597656 1.773437-2.457031.3125-.992188.554688-2.003906.722656-3.03125 0-.113281.0625-.199219.0625-.3125v-60.886719l56-18.664062v223.125zm0 0"/><path d="m200 80c4.417969 0 8-3.582031 8-8v-64c0-4.417969-3.582031-8-8-8s-8 3.582031-8 8v64c0 4.417969 3.582031 8 8 8zm0 0"/><path d="m280 104c4.417969 0 8-3.582031 8-8v-64c0-4.417969-3.582031-8-8-8s-8 3.582031-8 8v64c0 4.417969 3.582031 8 8 8zm0 0"/><path d="m360 128c4.417969 0 8-3.582031 8-8v-64c0-4.417969-3.582031-8-8-8s-8 3.582031-8 8v64c0 4.417969 3.582031 8 8 8zm0 0"/><path d="m112 104c4.417969 0 8-3.582031 8-8v-64c0-4.417969-3.582031-8-8-8s-8 3.582031-8 8v64c0 4.417969 3.582031 8 8 8zm0 0"/><path d="m32 128c4.417969 0 8-3.582031 8-8v-64c0-4.417969-3.582031-8-8-8s-8 3.582031-8 8v64c0 4.417969 3.582031 8 8 8zm0 0"/></g></svg>