<svg height="512" viewBox="0 0 64 64" width="512" xmlns="http://www.w3.org/2000/svg"><path d="m49 3h-26v14a2 2 0 0 1 -2 2h-14v34a2 2 0 0 0 2 2h40a2 2 0 0 0 2-2v-48a2 2 0 0 0 -2-2z" fill="#c0cef9"/><g fill="#3366ff "><path d="m55 8h-3v-3a3 3 0 0 0 -3-3h-26a1 1 0 0 0 -.707.293l-16 16a1 1 0 0 0 -.293.707v34a3 3 0 0 0 3 3h3v3a3 3 0 0 0 3 3h40a3 3 0 0 0 3-3v-48a3 3 0 0 0 -3-3zm-33-2.586v11.586a1 1 0 0 1 -1 1h-11.586zm-14 47.586v-33h13a3 3 0 0 0 3-3v-13h25a1 1 0 0 1 1 1v48a1 1 0 0 1 -1 1h-40a1 1 0 0 1 -1-1zm48 6a1 1 0 0 1 -1 1h-40a1 1 0 0 1 -1-1v-3h35a3 3 0 0 0 3-3v-43h3a1 1 0 0 1 1 1z"/><path d="m31.165 22.014a1 1 0 0 0 -1.151.821l-4 24a1 1 0 0 0 .821 1.151.946.946 0 0 0 .165.014 1 1 0 0 0 .985-.835l4-24a1 1 0 0 0 -.82-1.151z"/><path d="m35.625 26.219a1 1 0 0 0 -1.25 1.562l9.025 7.219-9.024 7.219a1 1 0 0 0 1.25 1.562l10-8a1 1 0 0 0 0-1.562z"/><path d="m23.781 26.375a1 1 0 0 0 -1.406-.156l-10 8a1 1 0 0 0 0 1.562l10 8a1 1 0 0 0 1.25-1.562l-9.025-7.219 9.024-7.219a1 1 0 0 0 .157-1.406z"/></g></svg>