<svg height="512" viewBox="0 0 64 64" width="512" xmlns="http://www.w3.org/2000/svg"><g id="Config"><g fill="#c0cef9"><path d="m55 3h-46a2 2 0 0 0 -2 2v6h50v-6a2 2 0 0 0 -2-2z"/><path d="m59 11h-2v30h-50v-30h-2a2.006 2.006 0 0 0 -2 2v32a2.006 2.006 0 0 0 2 2h54a2.006 2.006 0 0 0 2-2v-32a2.006 2.006 0 0 0 -2-2z"/><path d="m45.42 33a14.459 14.459 0 0 0 -1.1-2.66l3.94-3.95-5.65-5.65-3.95 3.94a14.459 14.459 0 0 0 -2.66-1.1v-5.58h-8v5.58a14.459 14.459 0 0 0 -2.66 1.1l-3.95-3.94-5.65 5.65 3.94 3.95a14.459 14.459 0 0 0 -1.1 2.66h-5.58v8h12.08a7.851 7.851 0 0 1 -1.08-4 8 8 0 0 1 16 0 7.851 7.851 0 0 1 -1.08 4h12.08v-8z"/><path d="m25 47h14v8h-14z"/><path d="m19 55a2 2 0 0 0 -2 2v4h30v-4a2 2 0 0 0 -2-2z"/></g><path d="m12 6h-1a1 1 0 0 0 0 2h1a1 1 0 0 0 0-2z" fill="#3366ff "/><path d="m17 6h-1a1 1 0 0 0 0 2h1a1 1 0 0 0 0-2z" fill="#3366ff "/><path d="m22 6h-1a1 1 0 0 0 0 2h1a1 1 0 0 0 0-2z" fill="#3366ff "/><path d="m59 10h-1v-5a3 3 0 0 0 -3-3h-46a3 3 0 0 0 -3 3v5h-1a3 3 0 0 0 -3 3v32a3 3 0 0 0 3 3h19v6h-5a3 3 0 0 0 -3 3v5h32v-5a3 3 0 0 0 -3-3h-5v-6h19a3 3 0 0 0 3-3v-32a3 3 0 0 0 -3-3zm-18.535 30a8.92 8.92 0 0 0 .535-3 9 9 0 1 0 -17.465 3h-9.535v-6h4.58a1 1 0 0 0 .958-.712 13.459 13.459 0 0 1 1.024-2.476 1 1 0 0 0 -.174-1.178l-3.234-3.243 4.237-4.237 3.243 3.234a1 1 0 0 0 1.178.174 13.459 13.459 0 0 1 2.476-1.024 1 1 0 0 0 .712-.958v-4.58h6v4.58a1 1 0 0 0 .712.958 13.376 13.376 0 0 1 2.475 1.024 1 1 0 0 0 1.179-.174l3.243-3.235 4.238 4.238-3.235 3.243a1 1 0 0 0 -.174 1.178 13.613 13.613 0 0 1 1.025 2.477 1 1 0 0 0 .957.711h4.58v6zm-14.765 0a6.9 6.9 0 0 1 -.7-3 7 7 0 0 1 14 0 6.88 6.88 0 0 1 -.7 3zm25.3-8h-4.856a15.307 15.307 0 0 0 -.606-1.465l3.43-3.439a1 1 0 0 0 0-1.413l-5.65-5.65a1 1 0 0 0 -1.413 0l-3.438 3.43a15.587 15.587 0 0 0 -1.467-.607v-4.856a1 1 0 0 0 -1-1h-8a1 1 0 0 0 -1 1v4.856a15.2 15.2 0 0 0 -1.465.606l-3.435-3.43a1 1 0 0 0 -1.413 0l-5.65 5.65a1 1 0 0 0 0 1.413l3.43 3.439a15.2 15.2 0 0 0 -.611 1.466h-4.856a1 1 0 0 0 -1 1v7h-4v-28h48v28h-4v-7a1 1 0 0 0 -1-1zm-43-27a1 1 0 0 1 1-1h46a1 1 0 0 1 1 1v5h-48zm37 51a1 1 0 0 1 1 1v3h-28v-3a1 1 0 0 1 1-1zm-7-2h-12v-6h12zm22-9a1 1 0 0 1 -1 1h-54a1 1 0 0 1 -1-1v-32a1 1 0 0 1 1-1h1v29a1 1 0 0 0 1 1h50a1 1 0 0 0 1-1v-29h1a1 1 0 0 1 1 1z" fill="#3366ff "/></g></svg>