<svg height="480pt" viewBox="-48 0 480 480" width="480pt" xmlns="http://www.w3.org/2000/svg"><path d="m280 136v-96h-224v432h320v-336zm0 0" fill="#c0cef9"/><path d="m280 136h96l-96-96zm0 0" fill="#c0cef9"/><g fill="#3366ff "><path d="m383.902344 135.519531c-.046875-.726562-.191406-1.441406-.429688-2.128906-.074218-.253906-.164062-.503906-.265625-.75-.375-.835937-.890625-1.601563-1.527343-2.265625l-45.679688-45.6875v-76.6875c0-4.417969-3.582031-8-8-8h-320c-4.417969 0-8 3.582031-8 8v432c0 4.417969 3.582031 8 8 8h40v24c0 4.417969 3.582031 8 8 8h320c4.417969 0 8-3.582031 8-8v-336c0-.167969-.089844-.3125-.097656-.480469zm-95.902344-76.207031 68.6875 68.6875h-68.6875zm-272 372.6875v-416h304v52.6875l-34.335938-34.335938c-.671874-.644531-1.453124-1.171874-2.304687-1.550781-.09375 0-.175781-.128906-.28125-.167969-.101563-.039062-.351563-.058593-.519531-.113281-.660156-.230469-1.347656-.367187-2.046875-.40625-.175781-.023437-.335938-.113281-.511719-.113281h-224c-4.417969 0-8 3.582031-8 8v392zm352 32h-304v-416h208v88c0 4.417969 3.582031 8 8 8h88zm0 0"/><path d="m104 120h128c4.417969 0 8-3.582031 8-8s-3.582031-8-8-8h-128c-4.417969 0-8 3.582031-8 8s3.582031 8 8 8zm0 0"/><path d="m96 184c0 4.417969 3.582031 8 8 8h224c4.417969 0 8-3.582031 8-8s-3.582031-8-8-8h-224c-4.417969 0-8 3.582031-8 8zm0 0"/><path d="m328 248h-224c-4.417969 0-8 3.582031-8 8s3.582031 8 8 8h224c4.417969 0 8-3.582031 8-8s-3.582031-8-8-8zm0 0"/><path d="m328 320h-224c-4.417969 0-8 3.582031-8 8s3.582031 8 8 8h224c4.417969 0 8-3.582031 8-8s-3.582031-8-8-8zm0 0"/><path d="m328 392h-224c-4.417969 0-8 3.582031-8 8s3.582031 8 8 8h224c4.417969 0 8-3.582031 8-8s-3.582031-8-8-8zm0 0"/></g></svg>