<svg height="480pt" viewBox="0 0 480 480" width="480pt" xmlns="http://www.w3.org/2000/svg"><path d="m8 472h464v-464h-464zm424-24c-8.835938 0-16-7.164062-16-16s7.164062-16 16-16 16 7.164062 16 16-7.164062 16-16 16zm0-416c8.835938 0 16 7.164062 16 16s-7.164062 16-16 16-16-7.164062-16-16 7.164062-16 16-16zm-192 32c97.203125 0 176 78.796875 176 176s-78.796875 176-176 176-176-78.796875-176-176 78.796875-176 176-176zm-192-32c8.835938 0 16 7.164062 16 16s-7.164062 16-16 16-16-7.164062-16-16 7.164062-16 16-16zm0 384c8.835938 0 16 7.164062 16 16s-7.164062 16-16 16-16-7.164062-16-16 7.164062-16 16-16zm0 0" fill="#c0cef9"/><path d="m64 48c0 8.835938-7.164062 16-16 16s-16-7.164062-16-16 7.164062-16 16-16 16 7.164062 16 16zm0 0" fill="#c0cef9"/><path d="m448 48c0 8.835938-7.164062 16-16 16s-16-7.164062-16-16 7.164062-16 16-16 16 7.164062 16 16zm0 0" fill="#c0cef9"/><path d="m64 432c0 8.835938-7.164062 16-16 16s-16-7.164062-16-16 7.164062-16 16-16 16 7.164062 16 16zm0 0" fill="#c0cef9"/><path d="m448 432c0 8.835938-7.164062 16-16 16s-16-7.164062-16-16 7.164062-16 16-16 16 7.164062 16 16zm0 0" fill="#c0cef9"/><path d="m288 344c0-26.507812-21.492188-48-48-48s-48 21.492188-48 48zm0 0" fill="#c0cef9"/><path d="m160 152h32v96h-32zm0 0" fill="#c0cef9"/><path d="m288 152h32v96h-32zm0 0" fill="#c0cef9"/><g fill="#3366ff "><path d="m472 480h-464c-4.417969 0-8-3.582031-8-8v-464c0-4.417969 3.582031-8 8-8h464c4.417969 0 8 3.582031 8 8v464c0 4.417969-3.582031 8-8 8zm-456-16h448v-448h-448zm0 0"/><path d="m240 424c-101.621094 0-184-82.378906-184-184s82.378906-184 184-184 184 82.378906 184 184c-.113281 101.574219-82.425781 183.886719-184 184zm0-352c-92.785156 0-168 75.214844-168 168s75.214844 168 168 168 168-75.214844 168-168c-.105469-92.738281-75.261719-167.894531-168-168zm0 0"/><path d="m48 72c-13.253906 0-24-10.746094-24-24s10.746094-24 24-24 24 10.746094 24 24-10.746094 24-24 24zm0-32c-4.417969 0-8 3.582031-8 8s3.582031 8 8 8 8-3.582031 8-8-3.582031-8-8-8zm0 0"/><path d="m432 72c-13.253906 0-24-10.746094-24-24s10.746094-24 24-24 24 10.746094 24 24-10.746094 24-24 24zm0-32c-4.417969 0-8 3.582031-8 8s3.582031 8 8 8 8-3.582031 8-8-3.582031-8-8-8zm0 0"/><path d="m48 456c-13.253906 0-24-10.746094-24-24s10.746094-24 24-24 24 10.746094 24 24-10.746094 24-24 24zm0-32c-4.417969 0-8 3.582031-8 8s3.582031 8 8 8 8-3.582031 8-8-3.582031-8-8-8zm0 0"/><path d="m432 456c-13.253906 0-24-10.746094-24-24s10.746094-24 24-24 24 10.746094 24 24-10.746094 24-24 24zm0-32c-4.417969 0-8 3.582031-8 8s3.582031 8 8 8 8-3.582031 8-8-3.582031-8-8-8zm0 0"/><path d="m192 256h-32c-4.417969 0-8-3.582031-8-8v-96c0-4.417969 3.582031-8 8-8h32c4.417969 0 8 3.582031 8 8v96c0 4.417969-3.582031 8-8 8zm-24-16h16v-80h-16zm0 0"/><path d="m320 256h-32c-4.417969 0-8-3.582031-8-8v-96c0-4.417969 3.582031-8 8-8h32c4.417969 0 8 3.582031 8 8v96c0 4.417969-3.582031 8-8 8zm-24-16h16v-80h-16zm0 0"/><path d="m240 288c-30.914062.035156-55.964844 25.085938-56 56 0 4.417969 3.582031 8 8 8h96c4.417969 0 8-3.582031 8-8-.035156-30.914062-25.085938-55.964844-56-56zm-39.199219 48c3.785157-18.644531 20.175781-32.039062 39.199219-32.039062s35.414062 13.394531 39.199219 32.039062zm0 0"/></g></svg>