<svg height="480pt" viewBox="-22 0 479 480" width="480pt" xmlns="http://www.w3.org/2000/svg"><path d="m328.53125 258v-250h-216v104h-104v360h320v-146.078125l-80.078125 80.078125-73.519531 39.601562 39.597656-73.523437zm-144-170h32v-32h32v32h32v32h-32v32h-32v-32h-32zm0 0" fill="#c0cef9"/><path d="m378.554688 208.03125.003906-.007812 33.941406 33.941406-.003906.007812zm0 0" fill="#c0cef9"/><g fill="#3366ff "><path d="m429.46875 202.398438-11.335938-11.335938c-9.5-9.0625-24.445312-9.0625-33.945312 0l-11.199219 11.203125c-.054687.046875-.128906.070313-.175781.117187l-22.71875 22.800782-13.601562 13.601562v-230.785156c0-4.417969-3.582032-8-8-8h-215.960938c-.160156 0-.3125.078125-.472656.0976562-.71875.0390628-1.429688.1796878-2.109375.4140628-.25.089843-.488281.152343-.722657.257812-.871093.386719-1.667968.929688-2.351562 1.597657l-104 104c-.671875.679687-1.210938 1.472656-1.597656 2.34375-.113282.25-.175782.496093-.265625.753906-.230469.664062-.367188 1.355468-.40625 2.054687 0 .175781-.105469.328125-.105469.503907v359.976562c0 4.417969 3.582031 8 8 8h320.03125c4.417969 0 8-3.582031 8-8v-142.769531l58.847656-58.832031 22.800782-22.71875c.054687-.046876.074218-.128907.121093-.175782l11.199219-11.199218c9.339844-9.378907 9.324219-24.546876-.03125-33.90625zm-22.625 0 11.289062 11.289062c1.5 1.5 2.34375 3.539062 2.34375 5.660156 0 2.125-.84375 4.160156-2.34375 5.660156l-5.65625 5.648438-22.609374-22.65625 5.664062-5.648438c3.175781-3.019531 8.164062-3 11.3125.046876zm-28.3125 16.929687 22.671875 22.664063-11.4375 11.40625c-1.601563-1.597657-22.496094-22.445313-22.65625-22.597657zm-162.054688 166.007813 18.71875 18.71875-40.566406 21.847656zm-111.945312-358.023438v76.6875h-76.6875zm216 317.917969v118.769531h-304v-344h96c4.417969 0 8-3.582031 8-8v-96h200v238.6875l-111.664062 111.710938c-.304688.375-.570313.777343-.800782 1.203124-.167968.238282-.4375.390626-.582031.65625l-39.609375 73.527344c-1.679688 3.109375-1.117188 6.957032 1.382812 9.457032s6.347657 3.0625 9.457032 1.382812l73.519531-39.601562c.265625-.144532.417969-.414063.65625-.582032.429687-.230468.832031-.496094 1.210937-.800781zm-72.078125 49.457031-22.609375-22.609375 130.015625-130.023437c1.265625 1.265624 17.089844 17.128906 22.578125 22.648437zm0 0"/><path d="m208.53125 160h48v-32h32v-48h-32v-32h-48v32h-32v48h32zm-16-48v-16h32v-32h16v32h32v16h-32v32h-16v-32zm0 0"/><path d="m48.53125 232h32v16h-32zm0 0"/><path d="m48.53125 280h32v16h-32zm0 0"/><path d="m48.53125 328h32v16h-32zm0 0"/><path d="m96.53125 328h104v16h-104zm0 0"/><path d="m96.53125 280h152v16h-152zm0 0"/><path d="m96.53125 232h192v16h-192zm0 0"/><path d="m48.53125 424h16v16h-16zm0 0"/><path d="m80.53125 424h16v16h-16zm0 0"/><path d="m112.53125 424h16v16h-16zm0 0"/><path d="m144.53125 424h16v16h-16zm0 0"/></g></svg>